<svg xmlns="http://www.w3.org/2000/svg" xmlns:svg="http://www.w3.org/2000/svg" id="svg3139" width="512" height="512" version="1.1"><metadata id="metadata3144"/><g id="layer1" transform="translate(0,-540.36218)"><path style="fill:teal;stroke:#000;stroke-width:10;stroke-linecap:butt;stroke-linejoin:miter;stroke-opacity:1;stroke-miterlimit:4;stroke-dasharray:none" id="path3122" d="m 266.0393,722.29419 55.75102,60.49578 13.04812,-13.04809 -13.04812,-17.79291 29.65478,-27.28238 9.48954,5.93093 18.97909,47.44769 -21.35148,17.79288 -7.11715,-2.3724 -24.91003,21.35145 -37.95814,-16.60666 z"/><path style="fill:teal;stroke:#000;stroke-width:10;stroke-linecap:butt;stroke-linejoin:miter;stroke-opacity:1;stroke-miterlimit:4;stroke-dasharray:none" id="path3124" d="m 211.47446,868.1958 0,33.21329 -18.97906,24.90995 -67.21478,38.70039 17.39473,57.38137 49.82005,0 4.74476,-11.8621 -22.53763,-14.23416 -10.67573,-18.97923 36.77193,-15.42052 21.35145,-26.09596 15.42052,-26.09631 z"/><path style="fill:#00caca;stroke:#000;stroke-width:10;stroke-linecap:butt;stroke-linejoin:miter;stroke-opacity:1;fill-opacity:1;stroke-miterlimit:4;stroke-dasharray:none" id="path3120" d="m 236.38452,702.12892 -55.75102,-8.30333 20.16523,-131.66731 135.22589,21.35145 -23.89988,133.28945 -48.45784,-9.97155 20.11919,34.31567 16.65278,80.79099 -14.2343,46.26151 -21.35145,22.53749 34.39953,53.37863 22.53767,47.4479 43.88908,-14.23451 12.16791,29.38679 -38.26412,18.0611 -52.36847,9.7117 -4.56873,-36.99401 -21.35145,-55.75133 -41.51672,-45.07519 -8.30336,-17.79284 -2.37236,-22.53767 18.97905,-35.58575 4.74479,-36.77193 1.18618,-30.84099 -49.82005,21.35145 0,52.19244 15.42048,2.3724 -11.8619,53.37862 -40.33054,-17.79287 9.48954,-41.51672 1.18618,-61.68199 80.66105,-48.63387 z"/></g></svg>